<?xml version="1.0" encoding="UTF-8"?>
<svg width="70px" height="70px" viewBox="0 0 70 70" version="1.1" xmlns="http://www.w3.org/2000/svg" xmlns:xlink="http://www.w3.org/1999/xlink">
    <!-- Generator: Sketch 63.1 (92452) - https://sketch.com -->
    <title>illust/Profile/Profile_empty_quit</title>
    <desc>Created with Sketch.</desc>
    <g id="illust/Profile/Profile_empty_quit" stroke="none" stroke-width="1" fill="none" fill-rule="evenodd">
        <g id="empty_profile">
            <g>
                <circle id="Oval" fill="#DDDDDD" cx="35" cy="35" r="35"></circle>
                <path d="M35,0 C54.3299662,0 70,15.6700338 70,35 C70,54.3299662 54.3299662,70 35,70 C15.6700338,70 0,54.3299662 0,35 C0,15.6700338 15.6700338,0 35,0 Z M35,2.625 C17.1197812,2.625 2.625,17.1197812 2.625,35 C2.625,52.8802188 17.1197812,67.375 35,67.375 C52.8802188,67.375 67.375,52.8802188 67.375,35 C67.375,17.1197812 52.8802188,2.625 35,2.625 Z" id="Oval" fill-opacity="0.0533216783" fill="#000000" fill-rule="nonzero"></path>
                <g id="Image/Profile/face/face01" transform="translate(21.875000, 21.000000)" fill="#696969" fill-rule="nonzero" opacity="0.6">
                    <path d="M26.0643406,9.97081989 C26.4621072,10.7114092 26.199689,11.6427714 25.4782131,12.0510757 C22.3421374,13.8258725 18.2237149,14.6975226 13.1266898,14.7034828 C8.02791325,14.7093847 3.90755141,13.8403262 0.769872727,12.0584671 C0.0489801197,11.6490788 -0.212109146,10.7173231 0.18671353,9.97733253 C0.585536207,9.23734196 1.49324479,8.96933589 2.2141374,9.37872422 C4.85714234,10.8796626 8.4921098,11.6463427 13.1233083,11.6409546 C17.7562581,11.6355644 21.3931649,10.8658255 24.0377728,9.36916465 C24.7592487,8.96086039 25.666574,9.23023061 26.0643406,9.97081989 Z M8.3125,-1.97619698e-12 C9.52062289,-1.97619698e-12 10.5,0.97937711 10.5,2.1875 C10.5,3.39562289 9.52062289,4.375 8.3125,4.375 C7.10437711,4.375 6.125,3.39562289 6.125,2.1875 C6.125,0.97937711 7.10437711,-1.97619698e-12 8.3125,-1.97619698e-12 Z M18.2750668,-1.97619698e-12 C19.4831897,-1.97619698e-12 20.4625668,0.97937711 20.4625668,2.1875 C20.4625668,3.39562289 19.4831897,4.375 18.2750668,4.375 C17.066944,4.375 16.0875668,3.39562289 16.0875668,2.1875 C16.0875668,0.97937711 17.066944,-1.97619698e-12 18.2750668,-1.97619698e-12 Z" id="Combined-Shape"></path>
                </g>
            </g>
        </g>
    </g>
</svg>